HIERARCHY
ROOT Hips
{
    OFFSET 0.000000 0.000000 0.000000
    CHANNELS 6 Xposition Yposition Zposition Zrotation Xrotation Yrotation
    JOINT Spine
    {
        OFFSET -0.000000 7.925200 0.000000
        CHANNELS 3 Zrotation Xrotation Yrotation
        JOINT Spine1
        {
            OFFSET -0.000000 23.364719 0.000000
            CHANNELS 3 Zrotation Xrotation Yrotation
            JOINT Neck
            {
                OFFSET -0.000000 23.268766 2.115342
                CHANNELS 3 Zrotation Xrotation Yrotation
                JOINT Head
                {
                    OFFSET -0.000000 13.530829 -1.932976
                    CHANNELS 3 Zrotation Xrotation Yrotation
                    End Site
                    {
                        OFFSET -0.000000 24.162195 0.000000
                    }
                }
            }
            JOINT LeftShoulder
            {
                OFFSET 3.858291 22.792089 -0.033814
                CHANNELS 3 Zrotation Xrotation Yrotation
                JOINT LeftArm
                {
                    OFFSET 7.057024 0.000000 0.000000
                    CHANNELS 3 Zrotation Xrotation Yrotation
                    JOINT LeftForeArm
                    {
                        OFFSET 34.734173 0.000000 0.000000
                        CHANNELS 3 Zrotation Xrotation Yrotation
                        JOINT LeftHand
                        {
                            OFFSET 23.943203 0.000000 0.000000
                            CHANNELS 3 Zrotation Xrotation Yrotation
                            End Site
                            {
                                OFFSET 14.497317 0.000000 0.000000
                            }
                        }
                    }
                }
            }
            JOINT RightShoulder
            {
                OFFSET -3.868823 22.792089 -0.033814
                CHANNELS 3 Zrotation Xrotation Yrotation
                JOINT RightArm
                {
                    OFFSET -7.057024 0.000000 0.000000
                    CHANNELS 3 Zrotation Xrotation Yrotation
                    JOINT RightForeArm
                    {
                        OFFSET -34.734173 0.000000 0.000000
                        CHANNELS 3 Zrotation Xrotation Yrotation
                        JOINT RightHand
                        {
                            OFFSET -23.943203 0.000000 0.000000
                            CHANNELS 3 Zrotation Xrotation Yrotation
                            End Site
                            {
                                OFFSET -14.497317 0.000000 0.000000
                            }
                        }
                    }
                }
            }
        }
    }
    JOINT LeftUpLeg
    {
        OFFSET 9.664878 0.000000 0.000000
        CHANNELS 3 Zrotation Xrotation Yrotation
        JOINT LeftLeg
        {
            OFFSET -0.000000 -38.728706 0.000000
            CHANNELS 3 Zrotation Xrotation Yrotation
            JOINT LeftFoot
            {
                OFFSET -0.000000 -40.242161 0.000000
                CHANNELS 3 Zrotation Xrotation Yrotation
                JOINT LeftToeBase
                {
                    OFFSET -0.000000 -6.282171 14.497317
                    CHANNELS 3 Zrotation Xrotation Yrotation
                    End Site
                    {
                        OFFSET -0.000000 0.000000 3.865951
                    }
                }
            }
        }
    }
    JOINT RightUpLeg
    {
        OFFSET -9.664878 0.000000 0.000000
        CHANNELS 3 Zrotation Xrotation Yrotation
        JOINT RightLeg
        {
            OFFSET -0.000000 -38.728706 0.000000
            CHANNELS 3 Zrotation Xrotation Yrotation
            JOINT RightFoot
            {
                OFFSET -0.000000 -40.242161 0.000000
                CHANNELS 3 Zrotation Xrotation Yrotation
                JOINT RightToeBase
                {
                    OFFSET -0.000000 -6.282171 14.497317
                    CHANNELS 3 Zrotation Xrotation Yrotation
                    End Site
                    {
                        OFFSET -0.000000 0.000000 3.865951
                    }
                }
            }
        }
    }
}
MOTION
Frames:    5
Frame Time:    0.008333
123.021332    89.524307    1.822936    -1.829213    1.226603    87.453041    -1.608970    -4.490808    -0.398372    1.340433    0.672493    -0.343135    -3.417361    20.714235    2.435774    -7.646552    -1.984198    1.166539    14.836235    -0.672636    2.204452    -12.332603    1.165551    -7.944181    2.790499    -4.537902    0.468356    -0.138869    -4.542562    -5.549270    -13.234154    0.282080    5.017990    10.836342    3.413825    8.195183    -2.885798    -1.029365    0.858665    3.936837    -0.932251    2.196729    -0.422149    1.527848    -0.031384    -1.182197    1.489459    -2.202116    -1.463093    -2.122106    11.532594    0.000000    0.000000    0.000000    -0.850132    -1.376428    -0.120487    -0.915680    6.087931    1.278559    1.634870    -4.437527    -11.800032    0.000000    0.000000    0.000000    
123.009941    89.533867    1.832327    -1.879066    1.219036    87.453270    -1.636969    -4.519209    -0.391603    1.403616    0.632741    -0.334887    -3.764998    20.745031    2.407028    -7.276823    -1.935610    1.182910    14.803104    -0.666782    2.180235    -12.333776    1.142210    -7.945898    2.794640    -4.545346    0.448541    -0.113471    -4.550777    -5.554793    -13.252623    0.296495    5.005566    10.834314    3.416674    8.183049    -2.877386    -1.030647    0.863836    3.902325    -0.934324    2.193407    -0.401441    1.459580    -0.016526    -1.197454    1.509576    -2.168847    -1.458091    -2.101703    11.498166    0.000000    0.000000    0.000000    -0.827152    -1.432469    -0.129132    -0.928102    6.083297    1.277563    1.654522    -4.399464    -11.794800    0.000000    0.000000    0.000000    
123.012398    89.534286    1.833084    -1.887056    1.223251    87.448898    -1.627440    -4.532759    -0.387811    1.371775    0.634692    -0.331041    -3.732821    20.822395    2.369493    -7.394827    -1.976947    1.120956    14.820156    -0.662919    2.183277    -12.333844    1.153924    -7.955414    2.799568    -4.583502    0.429286    -0.114047    -4.588414    -5.582529    -13.223635    0.295411    5.010345    10.827318    3.391394    8.171356    -2.855994    -1.013379    0.848553    3.899832    -0.916831    2.215107    -0.405858    1.455342    -0.024399    -1.191095    1.505265    -2.184916    -1.461848    -2.095428    11.515705    0.000000    0.000000    0.000000    -0.828888    -1.443415    -0.123923    -0.931983    6.093705    1.275923    1.633896    -4.404758    -11.785276    0.000000    0.000000    0.000000    
123.013596    89.535706    1.834469    -1.896246    1.225537    87.451904    -1.649075    -4.548657    -0.380932    1.399178    0.645077    -0.323282    -4.012546    20.592604    2.240203    -6.999781    -1.594436    1.069125    14.826086    -0.661134    2.160311    -12.353618    1.117616    -7.948206    2.798059    -4.594350    0.392880    -0.107374    -4.598687    -5.594988    -13.228745    0.287947    4.983928    10.828379    3.391818    8.161351    -2.855508    -1.008022    0.851924    3.886405    -0.911773    2.212771    -0.406428    1.446649    -0.009852    -1.193072    1.505983    -2.195632    -1.543232    -2.122972    11.523005    0.000000    0.000000    0.000000    -0.830608    -1.450970    -0.137587    -0.933567    6.083735    1.284119    1.638703    -4.391321    -11.788442    0.000000    0.000000    0.000000    
123.015663    89.534668    1.839890    -1.903723    1.221261    87.452240    -1.683174    -4.547324    -0.367498    1.454404    0.632812    -0.308924    -3.733241    20.863487    2.271895    -7.508553    -1.948806    1.001349    14.816912    -0.663563    2.151608    -12.358226    1.114544    -7.973889    2.803736    -4.581785    0.383673    -0.160387    -4.583245    -5.664742    -13.237522    0.282256    4.923986    10.820113    3.427537    8.168920    -2.854249    -1.012582    0.856591    3.879203    -0.915497    2.237507    -0.394445    1.438949    -0.024849    -1.201450    1.508319    -2.172737    -1.523861    -2.124536    11.511724    0.000000    0.000000    0.000000    -0.827239    -1.455864    -0.131174    -0.922527    6.089095    1.298607    1.633570    -4.400256    -11.801084    0.000000    0.000000    0.000000    
